# xmcd
#
# Track frame offsets: 
#        150
#        16503
#        31512
#        46009
#        58635
#        78669
#        91432
#        111054
#        126427
#        146081
#        162090
#        182318
#        193065
#        211147
#        224157
#        238440
#        250611
#        267279
#
# Disc length: 3723 seconds
#
# Revision: 0
# Processed by: cddbd v1.5.2PL0 Copyright (c) Steve Scherf et al.
# Submitted via: ExactAudioCopyFreeDBPlugin 1.0
#
DISCID=f60e8912
DTITLE=Maverick Music - Vol 6, Issue 122
DYEAR=2013
DGENRE=Americana
TTITLE0=Templeton Thompson - When I Get The Pony Rode
TTITLE1=The Former Members - Insufficient Funds
TTITLE2=Sam Sallon - Long Way Down
TTITLE3=Stacy Grubb - Hard Row To Hoe
TTITLE4=Holy Moly and The Crackers - Devil and the Danube
TTITLE5=Stevie Jewel - Tied to You (The Marshmallow Song)
TTITLE6=Alex Taylor - Stranger
TTITLE7=Jessica Rhaye - Sleepwalk
TTITLE8=Rant 'n' Rave - Empty Eyes
TTITLE9=Robinson - Her and the Pancakes
TTITLE10=Rob Baird - Redemption
TTITLE11=The Woodwards - Nothing
TTITLE12=Kate Lissauer - Greasy String
TTITLE13=Stephen Fearing - Keep Your Mouth Shut
TTITLE14=Buffy Ford Stewart - Snakes of Nuevo Laredo (accompanied by K
TTITLE14=ris Kristofferson)
TTITLE15=Rian Greene - The Best I've Ever Had
TTITLE16=Martin Stephenson and The Daintees - Boy to Man
TTITLE17=Red Bird Sky - Where The Wild Things Grow
EXTD=
EXTT0=
EXTT1=
EXTT2=
EXTT3=
EXTT4=
EXTT5=
EXTT6=
EXTT7=
EXTT8=
EXTT9=
EXTT10=
EXTT11=
EXTT12=
EXTT13=
EXTT14=
EXTT15=
EXTT16=
EXTT17=
PLAYORDER=
